<svg xmlns="http://www.w3.org/2000/svg" width="512" height="512" viewBox="0 0 512 512">
  <path mask="url(#tower-windows)"
    style="fill:inherit;stroke:inherit;stroke-width:1px;stroke-linecap:butt;stroke-linejoin:miter;stroke-opacity:1"
    d="M208 496h-80v-48h16V256s-32-48-32-96v-48c0-64 16-96 144-112 128 16 144 48 144 112v48c0 48-32 96-32 96v192h16v48h-80c.676-168.335-95.33-168.152-96 0z" />
  <mask id="tower-windows">
    <rect width="100%" height="100%" fill="#fff" />
    <path d="M256.51 104a16.51 56.33 0 1 1-33.02 0 16.51 56.33 0 1 1 33.02 0z"
      transform="matrix(2.48334 0 0 1.52762 -340.091 -24.82)" />
    <path d="M256 104a16 45.857 0 1 1-32 0 16 45.857 0 1 1 32 0z"
      transform="matrix(1.55243 0 0 1.52762 -14.647 -24.82)" />
    <path d="M256 104a16 45.75 0 1 1-32 0 16 45.75 0 1 1 32 0z"
      transform="matrix(1.55243 0 0 1.52762 -215.83 -24.983)" />
  </mask>
</svg>
